<svg width="28" height="28" viewBox="0 0 28 28" fill="none" xmlns="http://www.w3.org/2000/svg">
<path d="M10.3182 15.3695C9.34975 15.9921 8.79633 15.9229 7.9662 15.7154C7.13606 15.5079 6.51346 15.3003 5.68333 15.0236C4.85319 14.7469 4.57648 14.1243 6.02922 13.5709C13.731 10.2042 18.2045 8.33642 19.4497 7.96747C20.7641 7.5524 21.11 8.10582 20.9716 9.14349C20.6488 11.9106 20.0954 15.3926 19.3114 19.5893C19.1038 20.7654 18.5504 21.7339 16.821 20.5578L12.5319 17.6524C11.8863 17.1912 11.771 16.73 12.186 16.2688C13.0854 15.2311 14.6764 13.9859 16.821 11.7722C17.0516 11.5417 17.1207 11.3572 17.0285 11.2188C16.9363 11.0805 16.7518 11.1035 16.4751 11.288L10.3182 15.3695Z" fill="white"/>
</svg>
