<svg width="133" height="20" viewBox="0 0 133 20" fill="none" xmlns="http://www.w3.org/2000/svg">
<path d="M17.7949 15.8184C16.7427 15.8184 16.1426 15.1949 16.1426 14.0881V5.91226C16.1426 4.80552 16.7427 4.18201 17.7949 4.18201C18.8471 4.18201 19.4472 4.80552 19.4472 5.91226V8.64794H23.4065V5.91226C23.4065 4.80552 24.0067 4.18201 25.0589 4.18201C26.111 4.18201 26.7112 4.80552 26.7112 5.91226V14.0881C26.7112 15.1949 26.111 15.8184 25.0589 15.8184C24.0067 15.8184 23.4065 15.1949 23.4065 14.0881V11.2745H19.4472V14.0881C19.4472 15.1949 18.8471 15.8184 17.7949 15.8184Z" fill="white"/>
<path fill-rule="evenodd" clip-rule="evenodd" d="M29.9363 15.8184C28.8841 15.8184 28.2528 15.2182 28.2528 14.2206C28.2528 13.9322 28.3385 13.5114 28.4866 13.1139L31.004 6.16167C31.4873 4.79773 32.3056 4.18201 33.6228 4.18201C35.0335 4.18201 35.8441 4.77435 36.3507 6.16167L38.8915 13.1139C39.0474 13.5425 39.1097 13.8543 39.1097 14.2128C39.1097 15.1481 38.4161 15.8184 37.4574 15.8184C36.4832 15.8184 35.9766 15.3741 35.696 14.283L35.5011 13.5192H31.838L31.6431 14.2284C31.3314 15.3585 30.8326 15.8184 29.9363 15.8184ZM32.4615 11.0563H34.8075L33.6384 6.97224H33.576L32.4615 11.0563Z" fill="white"/>
<path fill-rule="evenodd" clip-rule="evenodd" d="M40.6591 14.0881C40.6591 15.1949 41.2593 15.8184 42.3114 15.8184C43.3636 15.8184 43.9638 15.1949 43.9638 14.0881V12.5527H45.5693C48.1959 12.5527 49.9807 10.9549 49.9807 8.47647C49.9807 5.97461 48.2972 4.37686 45.7953 4.37686H42.3114C41.2593 4.37686 40.6591 5.00037 40.6591 6.10711V14.0881ZM44.8105 10.371C44.9113 10.433 45.0209 10.4929 45.0932 10.4929C45.1677 10.4929 45.2773 10.433 45.3781 10.371C46.5835 9.62951 47.3746 8.74548 47.3746 7.85939C47.3746 7.04766 46.7763 6.50238 46.0575 6.50238C45.6104 6.50238 45.2861 6.73371 45.0932 7.07245C44.9026 6.73578 44.5782 6.50238 44.1311 6.50238C43.4123 6.50238 42.814 7.04766 42.814 7.85939C42.814 8.74548 43.6052 9.62951 44.8105 10.371Z" fill="white"/>
<path d="M55.5518 15.8184C54.4996 15.8184 53.8994 15.1949 53.8994 14.0881V7.01121H52.2393C51.3664 7.01121 50.7819 6.53578 50.7819 5.69403C50.7819 4.85229 51.3508 4.37686 52.2393 4.37686H58.8642C59.7527 4.37686 60.3217 4.85229 60.3217 5.69403C60.3217 6.53578 59.7371 7.01121 58.8642 7.01121H57.2041V14.0881C57.2041 15.1949 56.6039 15.8184 55.5518 15.8184Z" fill="white"/>
<path d="M61.5125 14.0881C61.5125 15.1949 62.1127 15.8184 63.1648 15.8184C64.217 15.8184 64.8172 15.1949 64.8172 14.0881V5.91226C64.8172 4.80552 64.217 4.18201 63.1648 4.18201C62.1127 4.18201 61.5125 4.80552 61.5125 5.91226V14.0881Z" fill="white"/>
<path d="M71.986 15.8184C68.4164 15.8184 66.3198 13.7062 66.3198 9.99629C66.3198 6.28637 68.4631 4.18201 71.8613 4.18201C74.0124 4.18201 75.6024 5.00037 76.4909 6.56695C76.7169 6.95665 76.8338 7.36973 76.8338 7.76722C76.8338 8.60897 76.2649 9.15455 75.3997 9.15455C74.6827 9.15455 74.2462 8.87396 73.8877 8.1803C73.3889 7.22165 72.7654 6.77739 71.9003 6.77739C70.5441 6.77739 69.6868 7.97766 69.6868 9.9885C69.6868 12.0227 70.5363 13.223 71.908 13.223C72.8121 13.223 73.4435 12.7631 73.9189 11.7655C74.254 11.0563 74.6515 10.7835 75.3452 10.7835C76.2882 10.7835 76.904 11.3602 76.904 12.2409C76.904 12.5215 76.8416 12.8177 76.7247 13.1061C76.07 14.735 74.1761 15.8184 71.986 15.8184Z" fill="white"/>
<path d="M78.6638 13.8075C79.147 14.9065 80.6123 15.8184 83.1453 15.8184C86.2473 15.8184 88.0555 14.3453 88.0555 12.0305C88.0555 10.2067 86.9176 9.2169 84.5015 8.78044L83.3713 8.57779C82.249 8.37515 81.7658 8.13354 81.7658 7.62693C81.7658 7.12032 82.2334 6.71504 83.1531 6.71504C83.8624 6.71504 84.3846 6.92548 84.7509 7.48664C85.1484 8.08677 85.5926 8.32839 86.2941 8.32839C87.1202 8.32059 87.6658 7.81399 87.6658 7.06577C87.6658 6.80857 87.619 6.59813 87.5255 6.37211C86.941 4.9692 85.3432 4.18201 83.1141 4.18201C80.4408 4.18201 78.4923 5.6083 78.4923 7.86854C78.4923 9.61439 79.716 10.7445 81.9528 11.142L83.083 11.3446C84.3456 11.5707 84.782 11.7967 84.782 12.3267C84.782 12.8801 84.1741 13.2853 83.1843 13.2853C82.4439 13.2853 81.7892 13.0593 81.3995 12.5059C80.9552 11.8824 80.5343 11.6876 79.9108 11.6876C79.0925 11.6876 78.4923 12.2332 78.4923 13.0281C78.4923 13.2853 78.5469 13.5503 78.6638 13.8075Z" fill="white"/>
<path d="M91.2559 10.0003C91.2559 6.02384 94.4794 2.80029 98.4559 2.80029H109.656C113.632 2.80029 116.856 6.02384 116.856 10.0003V10.0003C116.856 13.9767 113.632 17.2003 109.656 17.2003H98.4559C94.4794 17.2003 91.2559 13.9767 91.2559 10.0003V10.0003Z" fill="#FF375F"/>
<path d="M96.8449 12.66C96.3809 12.66 96.0801 12.3936 96.0801 11.9209V8.16118C96.0801 7.69282 96.3809 7.42212 96.8406 7.42212H98.4863C99.6551 7.42212 100.45 8.15259 100.45 9.29556C100.45 10.4299 99.6121 11.1561 98.3832 11.1561H97.6098V11.9209C97.6098 12.3936 97.309 12.66 96.8449 12.66ZM97.6098 8.5522V10.0518H98.0695C98.5895 10.0518 98.9031 9.79829 98.9031 9.29985C98.9031 8.80571 98.5895 8.5522 98.0781 8.5522H97.6098Z" fill="white"/>
<path d="M102.139 12.66C101.675 12.66 101.374 12.3936 101.374 11.9209V8.16118C101.374 7.69282 101.675 7.42212 102.135 7.42212H103.716C105.117 7.42212 105.843 8.07095 105.843 9.16665C105.843 9.77681 105.538 10.3612 104.979 10.6147L105.491 11.4741C105.602 11.6631 105.65 11.8178 105.65 12.0026C105.65 12.3936 105.34 12.66 104.885 12.66C104.554 12.66 104.365 12.5268 104.163 12.1616L103.437 10.8424H102.904V11.9209C102.904 12.3936 102.603 12.66 102.139 12.66ZM102.904 9.84985H103.566C104.008 9.84985 104.279 9.58774 104.279 9.19243C104.279 8.80571 103.995 8.53071 103.566 8.53071H102.904V9.84985Z" fill="white"/>
<path d="M109.371 12.6643C107.734 12.6643 106.707 11.6459 106.707 10.0002C106.707 8.35454 107.738 7.33618 109.371 7.33618C111.004 7.33618 112.031 8.35454 112.031 10.0002C112.031 11.6459 111.004 12.6643 109.371 12.6643ZM109.371 11.4698C110.037 11.4698 110.475 10.8983 110.475 10.0002C110.475 9.1022 110.033 8.53071 109.371 8.53071C108.709 8.53071 108.267 9.1022 108.267 10.0002C108.267 10.8983 108.705 11.4698 109.371 11.4698Z" fill="white"/>
</svg>
