<svg width="28" height="28" viewBox="0 0 28 28" fill="none" xmlns="http://www.w3.org/2000/svg">
<g clip-path="url(#clip0_504_1500)">
<path d="M23 8.81343C22.505 9.55347 21.8785 10.2035 21.1564 10.7248C21.1634 10.8834 21.1668 11.0426 21.1668 11.2025C21.1668 16.0824 17.4534 21.7092 10.6608 21.7092C8.57493 21.7092 5.85702 20.979 5 20.0505C5.28936 20.0851 5.58359 20.1025 5.88126 20.1025C7.61197 20.1025 9.20422 19.512 10.4676 18.5213C8.85184 18.4916 7.48806 17.4233 7.018 15.9564C7.75308 16.0718 8.68569 15.8927 8.68569 15.8927C8.68569 15.8927 5.7983 15.3971 5.72342 12.2257C6.55834 12.7098 7.39597 12.6874 7.39597 12.6874C7.39597 12.6874 5.73066 11.6622 5.75388 9.6144C5.76759 8.40649 6.25302 7.75703 6.25302 7.75703C9.40822 11.6424 13.8646 11.6158 13.8646 11.6158C13.8646 11.6158 13.7691 11.0641 13.7691 10.7747C13.7691 8.73591 15.4223 7.08203 17.4618 7.08203C18.5237 7.08203 19.4832 7.53064 20.1568 8.24853C20.9987 8.08238 21.7892 7.77502 22.5022 7.35205C22.1801 8.64201 20.8789 9.39495 20.8789 9.39495C20.8789 9.39495 21.9927 9.27119 23 8.81343Z" fill="white"/>
</g>
<defs>
<clipPath id="clip0_504_1500">
<rect width="18" height="14.7092" fill="white" transform="translate(5 7)"/>
</clipPath>
</defs>
</svg>
